<svg width="562" height="212" viewBox="0 0 562 212" fill="none" xmlns="http://www.w3.org/2000/svg">
	<g clip-path="url(#clip0)">
		<rect width="562" height="212" fill="url(#paint0_linear)" />
		<path fill-rule="evenodd" clip-rule="evenodd" d="M158.523 115.404C158.523 121.371 153.607 126.207 147.543 126.207C141.479 126.207 136.563 121.371 136.563 115.404C136.563 109.438 141.479 104.601 147.543 104.601C153.607 104.601 158.523 109.438 158.523 115.404Z" fill="#FFD700" />
		<path fill-rule="evenodd" clip-rule="evenodd" d="M141.582 121.711C141.335 121.711 141.091 121.726 140.851 121.754C140.295 117.697 136.764 114.569 132.488 114.569C128.692 114.569 125.481 117.035 124.42 120.427C123.622 120.117 122.754 119.945 121.845 119.945C117.971 119.945 114.831 123.035 114.831 126.846C114.831 126.927 114.834 127.007 114.837 127.087H147.736C147.373 124.059 144.757 121.711 141.582 121.711Z" fill="white" />
		<path fill-rule="evenodd" clip-rule="evenodd" d="M141.582 121.711C141.335 121.711 141.091 121.726 140.851 121.754C140.295 117.697 136.764 114.569 132.488 114.569C128.692 114.569 125.481 117.035 124.42 120.427C123.622 120.117 122.754 119.945 121.845 119.945C117.971 119.945 114.831 123.035 114.831 126.846C114.831 126.927 114.834 127.007 114.837 127.087H147.736C147.373 124.059 144.757 121.711 141.582 121.711Z" fill="white" />
		<path fill-rule="evenodd" clip-rule="evenodd" d="M139.717 220.786H181.142V171.986H139.717V220.786Z" fill="#AAAAAA" />
		<path fill-rule="evenodd" clip-rule="evenodd" d="M70.217 220.786H111.642V171.986H70.217V220.786Z" fill="#AAAAAA" />
		<path fill-rule="evenodd" clip-rule="evenodd" d="M129.528 220.875H162.013V144.675H129.528V220.875Z" fill="#D6D6D6" />
		<path fill-rule="evenodd" clip-rule="evenodd" d="M453.8 211.997H444.2V77.9967H472.8V97.1967H484.2V89.5967H509.4V144.997H522.4V211.997H509.4H495.6H491.8H484.2H472.8H453.8Z" fill="#D6D6D6" />
		<path fill-rule="evenodd" clip-rule="evenodd" d="M400.2 211.997H407.8H424.4H450V172.397H424.4V148.397H400.2V148.408H400.178V201.28H400.2V211.997Z" fill="#AAAAAA" />
		<path fill-rule="evenodd" clip-rule="evenodd" d="M505.6 211.997H547V172.397H505.6V211.997Z" fill="#AAAAAA" />
		<path fill-rule="evenodd" clip-rule="evenodd" d="M549.028 211.997H550.028V205.597H549.028V211.997Z" fill="#CEAF8C" />
		<path fill-rule="evenodd" clip-rule="evenodd" d="M549.528 207.997C546.656 207.997 544.328 205.669 544.328 202.797C544.328 199.925 546.656 197.597 549.528 197.597C552.4 197.597 554.728 199.925 554.728 202.797C554.728 205.669 552.4 207.997 549.528 207.997Z" fill="#2CB56E" />
		<path fill-rule="evenodd" clip-rule="evenodd" d="M444.981 211.197V209.694C444.981 208.292 446.118 207.155 447.52 207.155C447.912 207.155 448.282 207.246 448.613 207.405C448.706 206.087 449.802 205.047 451.143 205.047C452.545 205.047 453.681 206.183 453.681 207.585V211.197H444.981Z" fill="#2CB56E" />
		<path fill-rule="evenodd" clip-rule="evenodd" d="M449.914 211.997H450.914V205.597H449.914V211.997Z" fill="#CEAF8C" />
		<path fill-rule="evenodd" clip-rule="evenodd" d="M450.414 207.997C447.542 207.997 445.214 205.669 445.214 202.797C445.214 199.925 447.542 197.597 450.414 197.597C453.286 197.597 455.614 199.925 455.614 202.797C455.614 205.669 453.286 207.997 450.414 207.997Z" fill="#2CB56E" />
		<path fill-rule="evenodd" clip-rule="evenodd" d="M99.5999 211.997H78.7999V161.597H99.5999V211.997Z" fill="#8C6239" />
		<path fill-rule="evenodd" clip-rule="evenodd" d="M99.5999 211.997H138.4V161.597L99.5999 161.597V211.997Z" fill="#C69C6D" />
		<path fill-rule="evenodd" clip-rule="evenodd" d="M82.3999 175.997H87.9999V166.397H82.3999V175.997ZM95.9999 175.997H90.3999V166.397H95.9999V175.997ZM95.9999 188.797H90.3999V179.197H95.9999V188.797ZM87.9999 188.797H82.3999V179.197H87.9999V188.797ZM90.3999 201.597H95.9999V191.997H90.3999V201.597ZM87.9999 201.597H82.3999V191.997H87.9999V201.597Z" fill="#C69C6D" />
		<path fill-rule="evenodd" clip-rule="evenodd" d="M99.5999 161.597H76.3999V156.797L99.5999 156.797V161.597Z" fill="#C69C6D" />
		<path fill-rule="evenodd" clip-rule="evenodd" d="M112 175.997H104.4V166.397H112V175.997ZM112 188.797H104.4V179.197H112V188.797ZM104.4 201.597H112V191.997H104.4V201.597ZM122.8 175.997H115.2V166.397H122.8V175.997ZM126 175.997H133.6V166.397H126V175.997ZM122.8 188.797H115.2V179.197H122.8V188.797ZM126 188.797H133.6V179.197H126V188.797ZM133.6 201.597H126V191.997H133.6V201.597Z" fill="#8C6239" />
		<path fill-rule="evenodd" clip-rule="evenodd" d="M99.5999 161.597H140.8V156.797L99.5999 156.797V161.597Z" fill="#D8BB9A" />
		<path fill-rule="evenodd" clip-rule="evenodd" d="M122.6 207.997H115.4V197.225C115.4 195.221 117.012 193.597 119 193.597C120.988 193.597 122.6 195.221 122.6 197.225V207.997Z" fill="#5C5C5C" />
		<path fill-rule="evenodd" clip-rule="evenodd" d="M114.6 209.197V206.397H125.8V209.197L128 209.197V211.997H114.6V209.197H114.6Z" fill="white" />
		<path fill-rule="evenodd" clip-rule="evenodd" d="M113 209.197V206.397H117.8V209.197H120V211.997H113V209.197V209.197Z" fill="#AAAAAA" />
		<path fill-rule="evenodd" clip-rule="evenodd" d="M142 211.997V209.993C142 208.123 140.485 206.608 138.615 206.608C138.092 206.608 137.599 206.73 137.158 206.941C137.034 205.184 135.573 203.797 133.785 203.797C131.915 203.797 130.4 205.312 130.4 207.181V211.997H142Z" fill="#2CB56E" />
		<path fill-rule="evenodd" clip-rule="evenodd" d="M99 211.997V209.993C99 208.123 100.515 206.608 102.385 206.608C102.908 206.608 103.401 206.73 103.842 206.941C103.966 205.184 105.427 203.797 107.215 203.797C109.085 203.797 110.6 205.312 110.6 207.181V211.997H99Z" fill="#2CB56E" />
		<path fill-rule="evenodd" clip-rule="evenodd" d="M89.3799 211.997H90.3799V205.597H89.3799V211.997Z" fill="#CEAF8C" />
		<path fill-rule="evenodd" clip-rule="evenodd" d="M86.6799 204.776V200.818C86.6799 199.039 88.1126 197.597 89.8799 197.597C91.6472 197.597 93.0799 199.039 93.0799 200.818V204.776C93.0799 206.555 91.6472 207.997 89.8799 207.997C88.1126 207.997 86.6799 206.555 86.6799 204.776Z" fill="#2CB56E" />
		<path fill-rule="evenodd" clip-rule="evenodd" d="M78.4612 211.997H79.4612V205.597H78.4612V211.997Z" fill="#BA9874" />
		<path fill-rule="evenodd" clip-rule="evenodd" d="M78.9612 207.997C76.0894 207.997 73.7612 205.669 73.7612 202.797C73.7612 199.925 76.0894 197.597 78.9612 197.597C81.8331 197.597 84.1612 199.925 84.1612 202.797C84.1612 205.669 81.8331 207.997 78.9612 207.997Z" fill="#226748" />
		<path fill-rule="evenodd" clip-rule="evenodd" d="M75.2 220.797H142V211.997H75.2V220.797Z" fill="#5C5C5C" />
		<path fill-rule="evenodd" clip-rule="evenodd" d="M478.714 211.997H479.714V205.597H478.714V211.997Z" fill="#CEAF8C" />
		<path fill-rule="evenodd" clip-rule="evenodd" d="M476.014 204.776V200.818C476.014 199.039 477.447 197.597 479.214 197.597C480.982 197.597 482.414 199.039 482.414 200.818V204.776C482.414 206.555 480.982 207.997 479.214 207.997C477.447 207.997 476.014 206.555 476.014 204.776Z" fill="#2CB56E" />
		<path fill-rule="evenodd" clip-rule="evenodd" d="M503.014 211.197V209.193C503.014 207.323 501.499 205.808 499.63 205.808C499.107 205.808 498.614 205.93 498.172 206.141C498.048 204.384 496.588 202.997 494.799 202.997C492.93 202.997 491.414 204.512 491.414 206.381V211.197H503.014Z" fill="#2CB56E" />
		<path fill-rule="evenodd" clip-rule="evenodd" d="M237.404 160.875C237.154 160.875 236.907 160.892 236.664 160.92C236.102 156.748 232.529 153.53 228.202 153.53C224.36 153.53 221.111 156.066 220.037 159.555C219.23 159.237 218.352 159.06 217.431 159.06C213.511 159.06 210.334 162.237 210.334 166.157C210.334 166.24 210.337 166.323 210.34 166.405H243.631C243.264 163.291 240.617 160.875 237.404 160.875Z" fill="white" />
		<path fill-rule="evenodd" clip-rule="evenodd" d="M237.404 160.875C237.154 160.875 236.907 160.892 236.664 160.92C236.102 156.748 232.529 153.53 228.202 153.53C224.36 153.53 221.111 156.066 220.037 159.555C219.23 159.237 218.352 159.06 217.431 159.06C213.511 159.06 210.334 162.237 210.334 166.157C210.334 166.24 210.337 166.323 210.34 166.405H243.631C243.264 163.291 240.617 160.875 237.404 160.875Z" fill="white" />
		<path fill-rule="evenodd" clip-rule="evenodd" d="M319.071 143.863C320.026 143.863 320.941 144.027 321.793 144.327C323.174 141.738 325.899 139.976 329.036 139.976C332.902 139.976 336.143 142.653 337.012 146.257C337.822 145.989 338.687 145.844 339.586 145.844C343.409 145.844 346.622 148.462 347.533 152.005H310.866C310.906 147.502 314.564 143.863 319.071 143.863Z" fill="white" />
		<path fill-rule="evenodd" clip-rule="evenodd" d="M34.0042 107.075C33.7537 107.075 33.5073 107.092 33.2645 107.12C32.7017 102.948 29.1286 99.7299 24.8018 99.7299C20.9602 99.7299 17.7114 102.266 16.6372 105.755C15.8303 105.437 14.9518 105.26 14.0315 105.26C10.1114 105.26 6.93384 108.437 6.93384 112.357C6.93384 112.44 6.93719 112.523 6.94013 112.605H40.2313C39.8638 109.491 37.2168 107.075 34.0042 107.075Z" fill="white" />
		<path fill-rule="evenodd" clip-rule="evenodd" d="M34.0042 107.075C33.7537 107.075 33.5073 107.092 33.2645 107.12C32.7017 102.948 29.1286 99.7299 24.8018 99.7299C20.9602 99.7299 17.7114 102.266 16.6372 105.755C15.8303 105.437 14.9518 105.26 14.0315 105.26C10.1114 105.26 6.93384 108.437 6.93384 112.357C6.93384 112.44 6.93719 112.523 6.94013 112.605H40.2313C39.8638 109.491 37.2168 107.075 34.0042 107.075Z" fill="white" />
		<path fill-rule="evenodd" clip-rule="evenodd" d="M531.204 128.475C530.954 128.475 530.707 128.492 530.464 128.52C529.902 124.348 526.329 121.13 522.002 121.13C518.16 121.13 514.911 123.666 513.837 127.155C513.03 126.837 512.152 126.66 511.231 126.66C507.311 126.66 504.134 129.837 504.134 133.757C504.134 133.84 504.137 133.923 504.14 134.005H537.431C537.064 130.891 534.417 128.475 531.204 128.475Z" fill="white" />
		<path fill-rule="evenodd" clip-rule="evenodd" d="M531.204 128.475C530.954 128.475 530.707 128.492 530.464 128.52C529.902 124.348 526.329 121.13 522.002 121.13C518.16 121.13 514.911 123.666 513.837 127.155C513.03 126.837 512.152 126.66 511.231 126.66C507.311 126.66 504.134 129.837 504.134 133.757C504.134 133.84 504.137 133.923 504.14 134.005H537.431C537.064 130.891 534.417 128.475 531.204 128.475Z" fill="white" />
		<path fill-rule="evenodd" clip-rule="evenodd" d="M154.9 211.998C153.74 211.998 152.8 211.057 152.8 209.897C152.8 208.737 153.74 207.797 154.9 207.797C156.061 207.797 157.001 208.737 157.001 209.897C157.001 211.057 156.061 211.998 154.9 211.998ZM174.5 211.998C173.34 211.998 172.4 211.057 172.4 209.897C172.4 208.737 173.34 207.797 174.5 207.797C175.661 207.797 176.601 208.737 176.601 209.897C176.601 211.057 175.661 211.998 174.5 211.998ZM187 209.897C187 211.057 187.94 211.998 189.1 211.998C190.261 211.998 191.201 211.057 191.201 209.897C191.201 208.737 190.261 207.797 189.1 207.797C187.94 207.797 187 208.737 187 209.897Z" fill="#1A1A1A" />
		<path fill-rule="evenodd" clip-rule="evenodd" d="M138 209.897H181.3V190.697L138 190.697V209.897Z" fill="#720000" />
		<path fill-rule="evenodd" clip-rule="evenodd" d="M138 205.897H173.4V190.697L138 190.697V205.897Z" fill="#CC0000" />
		<path fill-rule="evenodd" clip-rule="evenodd" d="M155.699 193.551C153.078 193.551 150.952 195.676 150.952 198.297C150.952 200.919 153.078 203.044 155.699 203.044C158.321 203.044 160.446 200.919 160.446 198.297C160.446 195.676 158.321 193.551 155.699 193.551ZM155.698 201.461C153.951 201.461 152.534 200.044 152.534 198.297C152.534 196.549 153.951 195.132 155.698 195.132C157.446 195.132 158.863 196.549 158.863 198.297C158.863 200.044 157.446 201.461 155.698 201.461ZM155.699 199.879C156.573 199.879 157.281 199.171 157.281 198.297C157.281 197.423 156.573 196.714 155.699 196.714C154.825 196.714 154.117 197.423 154.117 198.297C154.117 199.171 154.825 199.879 155.699 199.879Z" fill="white" />
		<path fill-rule="evenodd" clip-rule="evenodd" d="M186.377 198.373C185.817 197.873 185.093 197.597 184.342 197.597H176.598V209.897H192.798V204.736C192.798 204.335 192.627 203.953 192.328 203.686L186.377 198.373Z" fill="#720000" />
		<mask id="mask0" mask-type="alpha" maskUnits="userSpaceOnUse" x="176" y="197" width="17" height="13">
			<path fill-rule="evenodd" clip-rule="evenodd" d="M186.377 198.373C185.817 197.873 185.093 197.597 184.342 197.597H176.598V209.897H192.798V204.736C192.798 204.335 192.627 203.953 192.328 203.686L186.377 198.373Z" fill="white" />
		</mask>
		<g mask="url(#mask0)">
			<path fill-rule="evenodd" clip-rule="evenodd" d="M188.598 207.397C188.598 207.838 188.202 208.197 187.713 208.197H186.284C185.795 208.197 185.398 207.838 185.398 207.397C185.398 206.955 185.795 206.597 186.284 206.597H187.713C188.202 206.597 188.598 206.955 188.598 207.397ZM194.398 207.397C194.398 207.838 194.002 208.197 193.513 208.197H192.084C191.595 208.197 191.198 207.838 191.198 207.397C191.198 206.955 191.595 206.597 192.084 206.597H193.513C194.002 206.597 194.398 206.955 194.398 207.397Z" fill="#CC0000" />
			<path fill-rule="evenodd" clip-rule="evenodd" d="M177.553 203.54H194.929V198.676H177.553V203.54Z" fill="#8FDEF6" />
		</g>
		<path fill-rule="evenodd" clip-rule="evenodd" d="M180.579 198.373C180.019 197.873 179.294 197.597 178.544 197.597H176.6V209.897H187V204.736C187 204.335 186.829 203.953 186.53 203.686L180.579 198.373Z" fill="#CC0000" />
		<mask id="mask1" mask-type="alpha" maskUnits="userSpaceOnUse" x="176" y="197" width="11" height="13">
			<path fill-rule="evenodd" clip-rule="evenodd" d="M180.579 198.373C180.019 197.873 179.294 197.597 178.544 197.597H176.6V209.897H187V204.736C187 204.335 186.829 203.953 186.53 203.686L180.579 198.373Z" fill="white" />
		</mask>
		<g mask="url(#mask1)">
			<path fill-rule="evenodd" clip-rule="evenodd" d="M177.904 203.541H194.93V198.677H179.055C178.419 198.677 177.904 199.192 177.904 199.828V203.541ZM187.714 208.197C188.203 208.197 188.599 207.838 188.599 207.397C188.599 206.955 188.203 206.597 187.714 206.597H186.284C185.795 206.597 185.399 206.955 185.399 207.397C185.399 207.838 185.795 208.197 186.284 208.197H187.714ZM193.514 208.197C194.003 208.197 194.399 207.838 194.399 207.397C194.399 206.955 194.003 206.597 193.514 206.597H192.084C191.595 206.597 191.199 206.955 191.199 207.397C191.199 207.838 191.595 208.197 192.084 208.197H193.514Z" fill="white" />
		</g>
		<path fill-rule="evenodd" clip-rule="evenodd" d="M144.9 211.998C143.74 211.998 142.8 211.057 142.8 209.897C142.8 208.737 143.74 207.797 144.9 207.797C146.061 207.797 147.001 208.737 147.001 209.897C147.001 211.057 146.061 211.998 144.9 211.998ZM149.9 211.998C148.74 211.998 147.8 211.057 147.8 209.897C147.8 208.737 148.74 207.797 149.9 207.797C151.061 207.797 152.001 208.737 152.001 209.897C152.001 211.057 151.061 211.998 149.9 211.998ZM162.4 209.897C162.4 211.057 163.34 211.998 164.5 211.998C165.661 211.998 166.601 211.057 166.601 209.897C166.601 208.737 165.661 207.797 164.5 207.797C163.34 207.797 162.4 208.737 162.4 209.897ZM169.5 211.998C168.34 211.998 167.4 211.057 167.4 209.897C167.4 208.737 168.34 207.797 169.5 207.797C170.661 207.797 171.601 208.737 171.601 209.897C171.601 211.057 170.661 211.998 169.5 211.998ZM181.2 209.897C181.2 211.057 182.14 211.998 183.3 211.998C184.461 211.998 185.401 211.057 185.401 209.897C185.401 208.737 184.461 207.797 183.3 207.797C182.14 207.797 181.2 208.737 181.2 209.897Z" fill="#333333" />
		<path fill-rule="evenodd" clip-rule="evenodd" d="M222.4 211.997V209.993C222.4 208.123 223.915 206.608 225.785 206.608C226.307 206.608 226.8 206.73 227.242 206.941C227.366 205.184 228.827 203.797 230.615 203.797C232.484 203.797 234 205.312 234 207.182V211.997H222.4Z" fill="#226748" />
		<path fill-rule="evenodd" clip-rule="evenodd" d="M224.8 194.397H227.2L232 184.397H229.6L224.8 194.397Z" fill="#333333" />
		<path fill-rule="evenodd" clip-rule="evenodd" d="M232 184.397L227.2 194.397V211.997H236.8L236.8 194.397L232 184.397Z" fill="#BA9874" />
		<path fill-rule="evenodd" clip-rule="evenodd" d="M230 204.397H234V197.997H230V204.397Z" fill="#CEAF8C" />
		<path fill-rule="evenodd" clip-rule="evenodd" d="M267.2 194.397H234.4L229.6 184.397H262.4L267.2 194.397Z" fill="#5C5C5C" />
		<path fill-rule="evenodd" clip-rule="evenodd" d="M248 194.397L253.2 187.997L258.4 194.397H264.8V211.997H236.8V194.397H248Z" fill="#CEAF8C" />
		<path fill-rule="evenodd" clip-rule="evenodd" d="M248 194.397L245 187.997H253.2L248 194.397Z" fill="#333333" />
		<path fill-rule="evenodd" clip-rule="evenodd" d="M256.4 208.397H250.8V200.018C250.8 198.46 252.054 197.197 253.6 197.197C255.146 197.197 256.4 198.46 256.4 200.018V208.397Z" fill="#5C5C5C" />
		<path fill-rule="evenodd" clip-rule="evenodd" d="M241.2 204.397H247.6V197.997H241.2V204.397Z" fill="white" />
		<path fill-rule="evenodd" clip-rule="evenodd" d="M229.8 211.997V209.993C229.8 208.123 231.315 206.608 233.185 206.608C233.707 206.608 234.2 206.73 234.642 206.941C234.766 205.184 236.227 203.797 238.015 203.797C239.884 203.797 241.4 205.312 241.4 207.182V211.997H229.8Z" fill="#2CB56E" />
		<path fill-rule="evenodd" clip-rule="evenodd" d="M269.6 211.997V209.993C269.6 208.123 268.085 206.608 266.215 206.608C265.693 206.608 265.2 206.73 264.758 206.941C264.634 205.184 263.173 203.797 261.385 203.797C259.516 203.797 258 205.312 258 207.182V211.997H269.6Z" fill="#2CB56E" />
		<path fill-rule="evenodd" clip-rule="evenodd" d="M250 209.597V207.197H259.6V209.597L262 209.597V211.997H252.4V209.597H250Z" fill="white" />
		<path fill-rule="evenodd" clip-rule="evenodd" d="M248.4 209.597V207.197H253.2V209.597L255.6 209.597V211.997H248.4V209.597H248.4Z" fill="#AAAAAA" />
		<path fill-rule="evenodd" clip-rule="evenodd" d="M222.4 220.797H269.6V211.997H222.4V220.797Z" fill="#00954B" />
		<path fill-rule="evenodd" clip-rule="evenodd" d="M5.59985 211.997V209.993C5.59985 208.123 7.11528 206.608 8.98468 206.608C9.50738 206.608 10.0004 206.73 10.4423 206.941C10.5661 205.184 12.0267 203.797 13.815 203.797C15.6844 203.797 17.1999 205.312 17.1999 207.182V211.997H5.59985Z" fill="#226748" />
		<path fill-rule="evenodd" clip-rule="evenodd" d="M8.00005 190.397H10.4L16.8 180.397H14.4L8.00005 190.397Z" fill="#333333" />
		<path fill-rule="evenodd" clip-rule="evenodd" d="M16.7999 180.397L10.3999 190.397V211.997H23.1999V190.397L16.7999 180.397Z" fill="#BA9874" />
		<path fill-rule="evenodd" clip-rule="evenodd" d="M13.6001 202.397H20.0001V195.997H13.6001V202.397Z" fill="#CEAF8C" />
		<path fill-rule="evenodd" clip-rule="evenodd" d="M56.7999 190.397H20.7999L14.3999 180.397L50.3999 180.397L56.7999 190.397Z" fill="#5C5C5C" />
		<path fill-rule="evenodd" clip-rule="evenodd" d="M32.7999 190.397L38.8 183.997L44.8 190.397H54.4V211.997H23.2V190.397H32.7999Z" fill="#CEAF8C" />
		<path fill-rule="evenodd" clip-rule="evenodd" d="M32.7999 202.397H26.3999V195.997H32.7999V202.397ZM51.1999 202.397H44.7999V195.997H51.1999V202.397Z" fill="white" />
		<path fill-rule="evenodd" clip-rule="evenodd" d="M32.8001 190.397L28.6001 183.997H38.8001L32.8001 190.397Z" fill="#333333" />
		<path fill-rule="evenodd" clip-rule="evenodd" d="M41.6 208.397H36V200.018C36 198.46 37.2536 197.197 38.8 197.197C40.3464 197.197 41.6 198.46 41.6 200.018V208.397Z" fill="#5C5C5C" />
		<path fill-rule="evenodd" clip-rule="evenodd" d="M14.8 211.997V209.993C14.8 208.123 16.3155 206.608 18.1849 206.608C18.6749 206.608 19.1388 206.715 19.559 206.903L19.6095 206.926C19.7385 205.198 21.1651 203.831 22.9181 203.797L23.0152 203.797C24.7987 203.797 26.26 205.176 26.3906 206.926L26.4411 206.903C26.8613 206.715 27.3252 206.608 27.8152 206.608C29.6631 206.608 31.1652 208.089 31.1995 209.928L31.2001 209.993V211.997H14.8Z" fill="#2CB56E" />
		<path fill-rule="evenodd" clip-rule="evenodd" d="M60.3999 211.997V209.993C60.3999 208.123 58.8845 206.608 57.0151 206.608C56.4924 206.608 55.9994 206.73 55.5575 206.941C55.4337 205.184 53.973 203.797 52.1847 203.797C50.3153 203.797 48.7999 205.312 48.7999 207.182V211.997H60.3999Z" fill="#2CB56E" />
		<path fill-rule="evenodd" clip-rule="evenodd" d="M35.2 209.597V207.197H44.7999V209.597L47.1999 209.597V211.997H37.5999V209.597H35.2Z" fill="white" />
		<path fill-rule="evenodd" clip-rule="evenodd" d="M33.5999 209.597V207.197H38.3999V209.597L40.7999 209.597V211.997H33.5999V209.597V209.597Z" fill="#AAAAAA" />
		<path fill-rule="evenodd" clip-rule="evenodd" d="M5.59985 220.797H60.3999V211.997H5.59985V220.797Z" fill="#00954B" />
		<path fill-rule="evenodd" clip-rule="evenodd" d="M212.5 211.997H213.5V205.597H212.5V211.997Z" fill="#CEAF8C" />
		<path fill-rule="evenodd" clip-rule="evenodd" d="M213 207.997C210.128 207.997 207.8 205.669 207.8 202.797C207.8 199.925 210.128 197.597 213 197.597C215.872 197.597 218.2 199.925 218.2 202.797C218.2 205.669 215.872 207.997 213 207.997Z" fill="#2CB56E" />
		<path fill-rule="evenodd" clip-rule="evenodd" d="M395.6 205.796C399.024 205.796 401.8 208.572 401.8 211.996H389.4C389.4 208.572 392.176 205.796 395.6 205.796Z" fill="#2CB56E" />
		<path fill-rule="evenodd" clip-rule="evenodd" d="M361.6 211.997H385.2V192.797H361.6V211.997Z" fill="#720000" />
		<path fill-rule="evenodd" clip-rule="evenodd" d="M340.8 182.398H331.2V211.998H340.8V182.398Z" fill="#720000" />
		<path fill-rule="evenodd" clip-rule="evenodd" d="M361.601 202.748V211.998H385.201V202.748H361.601Z" fill="white" />
		<path fill-rule="evenodd" clip-rule="evenodd" d="M369.2 211.997H372.4V205.997H369.2V211.997ZM377.6 211.997H374.4V205.997H377.6V211.997ZM382.8 211.997H379.6V205.997H382.8V211.997ZM367.2 211.997H364V205.997H367.2V211.997Z" fill="#8FDEF6" />
		<path fill-rule="evenodd" clip-rule="evenodd" d="M385.2 202.106C384.424 201.941 383.584 201.778 382.692 201.623C379.531 201.076 376.367 200.747 373.399 200.747C370.432 200.747 367.268 201.076 364.106 201.623C363.216 201.778 362.376 201.941 361.601 202.106V204.37L361.74 204.339C362.575 204.156 363.496 203.974 364.482 203.803C367.529 203.275 370.573 202.959 373.399 202.959C376.226 202.959 379.27 203.275 382.316 203.803C383.358 203.984 384.328 204.177 385.2 204.37V202.106Z" fill="#CC0000" />
		<path fill-rule="evenodd" clip-rule="evenodd" d="M385.2 211.997H395.6V192.797H385.2V211.997Z" fill="#CC0000" />
		<path fill-rule="evenodd" clip-rule="evenodd" d="M361.6 191.096V182.398H340.8V211.998H340.934H361.436H361.6V203.669V191.096Z" fill="#CC0000" />
		<path fill-rule="evenodd" clip-rule="evenodd" d="M351.2 186.864C347.923 186.864 345.266 189.52 345.266 192.797C345.266 196.074 347.923 198.73 351.2 198.73C354.476 198.73 357.133 196.074 357.133 192.797C357.133 189.52 354.476 186.864 351.2 186.864ZM351.2 196.752C349.015 196.752 347.244 194.981 347.244 192.797C347.244 190.612 349.015 188.841 351.2 188.841C353.384 188.841 355.155 190.612 355.155 192.797C355.155 194.981 353.384 196.752 351.2 196.752ZM351.2 194.774C352.292 194.774 353.177 193.889 353.177 192.797C353.177 191.704 352.292 190.819 351.2 190.819C350.107 190.819 349.222 191.704 349.222 192.797C349.222 193.889 350.107 194.774 351.2 194.774Z" fill="white" />
		<path fill-rule="evenodd" clip-rule="evenodd" d="M325.8 211.996V209.992C325.8 208.123 327.315 206.607 329.185 206.607C329.708 206.607 330.201 206.729 330.642 206.941C330.766 205.184 332.227 203.796 334.015 203.796C335.885 203.796 337.4 205.312 337.4 207.181V211.996H325.8Z" fill="#2CB56E" />
		<path fill-rule="evenodd" clip-rule="evenodd" d="M325.8 220.797H401.8V211.997H325.8V220.797Z" fill="#5C5C5C" />
		<path fill-rule="evenodd" clip-rule="evenodd" d="M202.5 211.997H203.5V205.597H202.5V211.997Z" fill="#CEAF8C" />
		<path fill-rule="evenodd" clip-rule="evenodd" d="M199.8 204.776V200.818C199.8 199.039 201.233 197.597 203 197.597C204.767 197.597 206.2 199.039 206.2 200.818V204.776C206.2 206.555 204.767 207.997 203 207.997C201.233 207.997 199.8 206.555 199.8 204.776Z" fill="#2CB56E" />
		<path fill-rule="evenodd" clip-rule="evenodd" d="M317.3 211.997H318.3V205.597H317.3V211.997Z" fill="#CEAF8C" />
		<path fill-rule="evenodd" clip-rule="evenodd" d="M314.6 204.776V200.818C314.6 199.039 316.033 197.597 317.8 197.597C319.567 197.597 321 199.039 321 200.818V204.776C321 206.555 319.567 207.997 317.8 207.997C316.033 207.997 314.6 206.555 314.6 204.776Z" fill="#2CB56E" />
		<path fill-rule="evenodd" clip-rule="evenodd" d="M284.21 209.897C284.21 211.057 285.151 211.997 286.31 211.997C287.47 211.997 288.41 211.057 288.41 209.897C288.41 208.737 287.47 207.797 286.31 207.797C285.151 207.797 284.21 208.737 284.21 209.897ZM300.9 209.897C300.9 211.057 301.84 211.997 303 211.997C304.16 211.997 305.1 211.057 305.1 209.897C305.1 208.737 304.16 207.797 303 207.797C301.84 207.797 300.9 208.737 300.9 209.897Z" fill="#1A1A1A" />
		<path fill-rule="evenodd" clip-rule="evenodd" d="M276.1 209.897H289.3V194.297H276.1V209.897Z" fill="#8FDEF6" />
		<path fill-rule="evenodd" clip-rule="evenodd" d="M295.7 209.897H289.3V194.297H295.7V209.897Z" fill="#42CBF3" />
		<path fill-rule="evenodd" clip-rule="evenodd" d="M282.7 197.297C280.712 197.297 279.1 198.908 279.1 200.897C279.1 202.885 280.712 204.497 282.7 204.497C284.688 204.497 286.3 202.885 286.3 200.897C286.3 198.908 284.688 197.297 282.7 197.297Z" fill="white" />
		<path fill-rule="evenodd" clip-rule="evenodd" d="M284.831 202.487V199.548H282.186V202.487C282.186 202.487 282.187 202.487 282.188 202.487H284.831Z" fill="#BA9874" />
		<path fill-rule="evenodd" clip-rule="evenodd" d="M280.57 199.548V202.487H282.185L282.186 202.487V199.548H280.57ZM283.949 199.548V200.283H283.068L283.067 199.548H283.949Z" fill="#CEAF8C" />
		<path fill-rule="evenodd" clip-rule="evenodd" d="M306.506 204.852C306.506 204.45 306.335 204.068 306.035 203.8L300.071 198.475C299.51 197.974 298.783 197.697 298.031 197.697H290.674L290.674 209.897H306.506V204.852Z" fill="#42CBF3" />
		<mask id="mask2" mask-type="alpha" maskUnits="userSpaceOnUse" x="290" y="197" width="17" height="13">
			<path fill-rule="evenodd" clip-rule="evenodd" d="M306.506 204.852C306.506 204.45 306.335 204.068 306.035 203.8L300.071 198.475C299.51 197.974 298.783 197.697 298.031 197.697H290.674L290.674 209.897H306.506V204.852Z" fill="white" />
		</mask>
		<g mask="url(#mask2)">
			<path fill-rule="evenodd" clip-rule="evenodd" d="M301.949 208.314H300.668C300.231 208.314 299.876 207.959 299.876 207.522C299.876 207.084 300.231 206.729 300.668 206.729H301.949C302.387 206.729 302.742 207.084 302.742 207.522C302.742 207.959 302.387 208.314 301.949 208.314ZM307.429 208.314H306.148C305.71 208.314 305.355 207.959 305.355 207.522C305.355 207.084 305.71 206.729 306.148 206.729H307.429C307.867 206.729 308.221 207.084 308.221 207.522C308.221 207.959 307.867 208.314 307.429 208.314Z" fill="#8FDEF6" />
			<path fill-rule="evenodd" clip-rule="evenodd" d="M291.726 203.672H309.141V198.797H291.726V203.672Z" fill="#8FDEF6" />
		</g>
		<path fill-rule="evenodd" clip-rule="evenodd" d="M294.464 198.475C293.903 197.974 293.177 197.697 292.424 197.697H290.7V209.897H300.899V204.852C300.899 204.45 300.728 204.068 300.428 203.8L294.464 198.475Z" fill="#8FDEF6" />
		<mask id="mask3" mask-type="alpha" maskUnits="userSpaceOnUse" x="290" y="197" width="11" height="13">
			<path fill-rule="evenodd" clip-rule="evenodd" d="M294.464 198.475C293.903 197.974 293.177 197.697 292.424 197.697H290.7V209.897H300.899V204.852C300.899 204.45 300.728 204.068 300.428 203.8L294.464 198.475Z" fill="white" />
		</mask>
		<g mask="url(#mask3)">
			<path fill-rule="evenodd" clip-rule="evenodd" d="M292.077 203.673H309.141V198.798H293.231C292.594 198.798 292.077 199.314 292.077 199.951V203.673ZM301.605 208.315H300.325C299.887 208.315 299.532 207.96 299.532 207.522C299.532 207.084 299.887 206.73 300.325 206.73H301.605C302.043 206.73 302.398 207.084 302.398 207.522C302.398 207.96 302.043 208.315 301.605 208.315Z" fill="white" />
		</g>
		<path fill-rule="evenodd" clip-rule="evenodd" d="M278.41 209.897C278.41 211.057 279.351 211.997 280.51 211.997C281.67 211.997 282.61 211.057 282.61 209.897C282.61 208.737 281.67 207.797 280.51 207.797C279.351 207.797 278.41 208.737 278.41 209.897ZM295.1 209.897C295.1 211.057 296.04 211.997 297.2 211.997C298.36 211.997 299.3 211.057 299.3 209.897C299.3 208.737 298.36 207.797 297.2 207.797C296.04 207.797 295.1 208.737 295.1 209.897Z" fill="#333333" />
		<path fill-rule="evenodd" clip-rule="evenodd" d="M457.6 211.997H432.8V107.197H457.6V211.997Z" fill="#DDDDDD" />
		<path fill-rule="evenodd" clip-rule="evenodd" d="M457.6 211.997H494.4V107.197H457.6L457.6 211.997Z" fill="#F7F7F7" />
		<path fill-rule="evenodd" clip-rule="evenodd" d="M449.6 119.997H454.4V110.397H449.6V119.997ZM454.4 131.997H449.6V122.397H454.4V131.997ZM449.6 143.997H454.4V134.397H449.6V143.997ZM454.4 155.997H449.6V146.397H454.4V155.997ZM454.4 167.997H449.6V158.397H454.4V167.997ZM454.4 179.997H449.6V170.397H454.4V179.997ZM449.6 191.997H454.4V182.397H449.6V191.997ZM454.4 203.997H449.6V194.397H454.4V203.997ZM442.8 167.997H447.6V158.397H442.8V167.997ZM447.6 155.997H442.8V146.397H447.6V155.997ZM442.8 143.997H447.6V134.397H442.8V143.997ZM447.6 179.997H442.8V170.397H447.6V179.997ZM442.8 191.997H447.6V182.397H442.8V191.997ZM447.6 203.997H442.8V194.397H447.6V203.997ZM436 167.997H440.8V158.397H436V167.997ZM440.8 155.997H436V146.397H440.8V155.997ZM436 143.997H440.8V134.397H436V143.997ZM442.8 131.997H447.6V122.397H442.8V131.997ZM440.8 131.997H436V122.397H440.8V131.997ZM447.6 119.997H442.8V110.397H447.6V119.997ZM436 119.997H440.8V110.397H436V119.997ZM440.8 179.997H436V170.397H440.8V179.997ZM436 191.997H440.8V182.397H436V191.997ZM440.8 203.997H436V194.397H440.8V203.997Z" fill="#BBBBBB" />
		<path fill-rule="evenodd" clip-rule="evenodd" d="M461.6 119.997H469.6V110.397H461.6V119.997ZM469.6 131.997H461.6V122.397H469.6V131.997ZM461.6 143.997H469.6V134.397H461.6V143.997ZM469.6 155.997H461.6V146.397H469.6V155.997ZM469.6 167.997H461.6V158.397H469.6V167.997ZM469.6 191.997H461.6V182.397H469.6V191.997ZM461.6 179.997H469.6V170.397H461.6V179.997ZM469.6 203.997H461.6V194.397H469.6V203.997ZM472 167.997H480V158.397H472V167.997ZM480 155.997H472V146.397H480V155.997ZM472 143.997H480V134.397H472V143.997ZM480 191.997H472V182.397H480V191.997ZM472 179.997H480V170.397H472V179.997ZM480 203.997H472V194.397H480V203.997ZM482.4 167.997H490.4V158.397H482.4V167.997ZM490.4 155.997H482.4V146.397H490.4V155.997ZM482.4 143.997H490.4V134.397H482.4V143.997ZM472 131.997H480V122.397H472V131.997ZM490.4 131.997H482.4V122.397H490.4V131.997ZM480 119.997H472V110.397H480V119.997ZM482.4 119.997H490.4V110.397H482.4V119.997ZM490.4 191.997H482.4V182.397H490.4V191.997ZM482.4 179.997H490.4V170.397H482.4V179.997ZM490.4 203.997H482.4V194.397H490.4V203.997Z" fill="#DDDDDD" />
		<path fill-rule="evenodd" clip-rule="evenodd" d="M502.368 211.997V209.993C502.368 208.123 500.852 206.608 498.983 206.608C498.46 206.608 497.967 206.73 497.525 206.941C497.401 205.184 495.941 203.797 494.153 203.797C492.283 203.797 490.768 205.312 490.768 207.181V211.997H502.368Z" fill="#2CB56E" />
		<path fill-rule="evenodd" clip-rule="evenodd" d="M448.1 211.997H449.1V205.597H448.1V211.997Z" fill="#CEAF8C" />
		<path fill-rule="evenodd" clip-rule="evenodd" d="M445.4 204.776V200.818C445.4 199.039 446.833 197.597 448.6 197.597C450.367 197.597 451.8 199.039 451.8 200.818V204.776C451.8 206.555 450.367 207.997 448.6 207.997C446.833 207.997 445.4 206.555 445.4 204.776Z" fill="#2CB56E" />
		<path fill-rule="evenodd" clip-rule="evenodd" d="M424.8 220.797H502.4V211.997H424.8V220.797Z" fill="#5C5C5C" />
		<path fill-rule="evenodd" clip-rule="evenodd" d="M437.804 121.075C437.554 121.075 437.307 121.092 437.064 121.12C436.501 116.948 432.928 113.73 428.602 113.73C424.76 113.73 421.511 116.266 420.437 119.755C419.63 119.437 418.752 119.26 417.831 119.26C413.911 119.26 410.734 122.437 410.734 126.357C410.734 126.44 410.737 126.523 410.74 126.605H444.031C443.664 123.491 441.017 121.075 437.804 121.075Z" fill="white" />
		<path fill-rule="evenodd" clip-rule="evenodd" d="M437.804 121.075C437.554 121.075 437.307 121.092 437.064 121.12C436.501 116.948 432.928 113.73 428.602 113.73C424.76 113.73 421.511 116.266 420.437 119.755C419.63 119.437 418.752 119.26 417.831 119.26C413.911 119.26 410.734 122.437 410.734 126.357C410.734 126.44 410.737 126.523 410.74 126.605H444.031C443.664 123.491 441.017 121.075 437.804 121.075Z" fill="white" />
		<path fill-rule="evenodd" clip-rule="evenodd" d="M499.684 209.897C499.684 211.057 500.624 211.997 501.784 211.997C502.944 211.997 503.884 211.057 503.884 209.897C503.884 208.737 502.944 207.797 501.784 207.797C500.624 207.797 499.684 208.737 499.684 209.897ZM513.2 209.897C513.2 211.057 514.14 211.997 515.3 211.997C516.46 211.997 517.4 211.057 517.4 209.897C517.4 208.737 516.46 207.797 515.3 207.797C514.14 207.797 513.2 208.737 513.2 209.897Z" fill="#1A1A1A" />
		<path fill-rule="evenodd" clip-rule="evenodd" d="M509.965 200.189H504.739L508.447 204.424L512.325 205.509C512.917 205.675 513.326 206.215 513.326 206.83V209.889H492.284V205.796C492.284 205.038 492.898 204.424 493.656 204.424H495.415L497.049 200.441C497.407 199.662 498.186 199.163 499.043 199.163H507.534L509.965 200.189Z" fill="#FFD700" />
		<path fill-rule="evenodd" clip-rule="evenodd" d="M504.599 200.188C503.859 199.528 502.902 199.163 501.91 199.163H507.394C508.385 199.163 509.342 199.528 510.082 200.188H504.599ZM518.671 209.889V208.679V206.83C518.671 206.215 518.261 205.675 517.669 205.509L513.791 204.424H508.307L512.185 205.509C512.777 205.675 513.187 206.215 513.187 206.83V209.889H518.671ZM492.71 207.345C493.138 207.345 493.485 206.998 493.485 206.57C493.485 206.142 493.138 205.795 492.71 205.795H492.284V207.345H492.71Z" fill="#FB8A00" />
		<path fill-rule="evenodd" clip-rule="evenodd" d="M513.791 204.424L510.082 200.189H504.599L508.307 204.424H513.791Z" fill="#8FDEF6" />
		<path fill-rule="evenodd" clip-rule="evenodd" d="M513.852 208.378H512.621C512.184 208.378 511.832 208.017 511.846 207.577C511.861 207.156 512.22 206.829 512.641 206.829H513.872C514.309 206.829 514.661 207.19 514.647 207.63C514.633 208.051 514.273 208.378 513.852 208.378ZM518.124 206.829H518.668C518.669 206.829 518.67 206.829 518.67 206.83V208.376C518.67 208.377 518.669 208.378 518.668 208.378H518.104C517.667 208.378 517.315 208.017 517.33 207.577C517.344 207.156 517.703 206.829 518.124 206.829Z" fill="#FFD700" />
		<path fill-rule="evenodd" clip-rule="evenodd" d="M501.781 200.669C501.781 200.404 501.566 200.189 501.301 200.189H498.619C498.432 200.189 498.261 200.298 498.183 200.468L496.562 204.424H501.781V200.669ZM504.6 200.189H503.908C503.302 200.189 502.81 200.68 502.81 201.286V204.424H508.308L504.6 200.189ZM513.186 206.829C513.187 206.829 513.188 206.829 513.188 206.83V208.376C513.188 208.377 513.187 208.378 513.186 208.378H512.622C512.185 208.378 511.833 208.017 511.848 207.577C511.862 207.156 512.222 206.829 512.643 206.829H513.186Z" fill="white" />
		<path fill-rule="evenodd" clip-rule="evenodd" d="M493.884 209.897C493.884 211.057 494.824 211.997 495.984 211.997C497.144 211.997 498.084 211.057 498.084 209.897C498.084 208.737 497.144 207.797 495.984 207.797C494.824 207.797 493.884 208.737 493.884 209.897ZM507.4 209.897C507.4 211.057 508.34 211.997 509.5 211.997C510.66 211.997 511.6 211.057 511.6 209.897C511.6 208.737 510.66 207.797 509.5 207.797C508.34 207.797 507.4 208.737 507.4 209.897Z" fill="#333333" />
		<path fill-rule="evenodd" clip-rule="evenodd" d="M416.434 211.997C417.594 211.997 418.534 211.057 418.534 209.897C418.534 208.737 417.594 207.797 416.434 207.797C415.274 207.797 414.334 208.737 414.334 209.897C414.334 211.057 415.274 211.997 416.434 211.997ZM431.634 211.997C432.794 211.997 433.734 211.057 433.734 209.897C433.734 208.737 432.794 207.797 431.634 207.797C430.474 207.797 429.534 208.737 429.534 209.897C429.534 211.057 430.474 211.997 431.634 211.997Z" fill="#1A1A1A" />
		<path fill-rule="evenodd" clip-rule="evenodd" d="M429.527 206.647C429.527 206.084 429.189 205.575 428.67 205.357L424.549 203.624L420.765 199.303L426.36 199.303C425.605 198.629 424.628 198.257 423.617 198.257H409.904C409.221 198.257 408.593 198.631 408.268 199.233L406.135 203.624V209.9H408.868H422.825H425.203H429.527V208.666V206.647Z" fill="#2CB56E" />
		<path fill-rule="evenodd" clip-rule="evenodd" d="M420.765 199.303C420.01 198.629 419.034 198.257 418.022 198.257H423.616C424.628 198.257 425.605 198.629 426.359 199.303H420.765ZM435.121 209.9V208.666V206.647C435.121 206.084 434.783 205.575 434.264 205.357L430.143 203.624H424.548L428.67 205.357C429.189 205.575 429.526 206.084 429.526 206.647V209.9H435.121ZM406.712 206.353H406.135V204.772H406.712C407.149 204.772 407.503 205.126 407.503 205.562C407.503 205.999 407.149 206.353 406.712 206.353Z" fill="#226748" />
		<path fill-rule="evenodd" clip-rule="evenodd" d="M430.227 208.227H428.95C428.514 208.227 428.16 207.873 428.16 207.437C428.16 207 428.514 206.646 428.95 206.646H430.227C430.664 206.646 431.018 207 431.018 207.437C431.018 207.873 430.664 208.227 430.227 208.227ZM434.544 206.647H435.121V208.228H434.544C434.107 208.228 433.753 207.874 433.753 207.437C433.753 207 434.107 206.647 434.544 206.647Z" fill="#2CB56E" />
		<path fill-rule="evenodd" clip-rule="evenodd" d="M430.143 203.624L426.359 199.304L420.765 199.304L424.548 203.624H430.143Z" fill="#8FDEF6" />
		<path fill-rule="evenodd" clip-rule="evenodd" d="M416.841 200.422C416.841 199.804 416.34 199.303 415.721 199.303H410.332C409.786 199.303 409.283 199.601 409.021 200.08L407.398 203.624H416.841V200.422ZM420.766 199.303H419.01C418.391 199.303 417.89 199.804 417.89 200.422V203.624H424.549L420.766 199.303ZM428.95 206.647H429.527V208.228H428.95C428.514 208.228 428.16 207.874 428.16 207.437C428.16 207 428.514 206.647 428.95 206.647Z" fill="white" />
		<path fill-rule="evenodd" clip-rule="evenodd" d="M408.534 209.897C408.534 211.057 409.474 211.997 410.634 211.997C411.794 211.997 412.734 211.057 412.734 209.897C412.734 208.737 411.794 207.797 410.634 207.797C409.474 207.797 408.534 208.737 408.534 209.897ZM423.734 209.897C423.734 211.057 424.674 211.997 425.834 211.997C426.994 211.997 427.934 211.057 427.934 209.897C427.934 208.737 426.994 207.797 425.834 207.797C424.674 207.797 423.734 208.737 423.734 209.897Z" fill="#333333" />
		<path fill-rule="evenodd" clip-rule="evenodd" d="M51.6863 209.897C51.6863 211.057 52.6264 211.997 53.7863 211.997C54.9462 211.997 55.8863 211.057 55.8863 209.897C55.8863 208.737 54.9462 207.797 53.7863 207.797C52.6264 207.797 51.6863 208.737 51.6863 209.897ZM67.6863 209.897C67.6863 211.057 68.6264 211.997 69.7863 211.997C70.9462 211.997 71.8863 211.057 71.8863 209.897C71.8863 208.737 70.9462 207.797 69.7863 207.797C68.6264 207.797 67.6863 208.737 67.6863 209.897Z" fill="#1A1A1A" />
		<path fill-rule="evenodd" clip-rule="evenodd" d="M64.4533 200.189H59.2271L62.9355 204.424L66.813 205.509C67.4052 205.675 67.8147 206.215 67.8147 206.83V209.889H44.2861V204.424H52.2998V199.163H62.022L64.4533 200.189Z" fill="#CC0000" />
		<path fill-rule="evenodd" clip-rule="evenodd" d="M56.3994 199.163C57.391 199.163 58.3483 199.528 59.0881 200.188H64.5717C63.8319 199.528 62.8746 199.163 61.883 199.163H56.3994ZM73.1587 209.889V208.679V206.83C73.1587 206.215 72.7491 205.675 72.1567 205.509L68.2792 204.424H62.7956L66.6731 205.509C67.2655 205.675 67.6751 206.215 67.6751 206.83V209.889H73.1587ZM45.4874 206.57C45.4874 206.998 45.1404 207.345 44.7124 207.345H44.2861V205.795H44.7124C45.1404 205.795 45.4874 206.142 45.4874 206.57Z" fill="#720000" />
		<path fill-rule="evenodd" clip-rule="evenodd" d="M69.1362 207.63C69.1223 208.051 68.7629 208.378 68.3417 208.378H67.1102C66.6735 208.378 66.321 208.017 66.3359 207.577C66.3501 207.156 66.7096 206.829 67.1306 206.829H68.3619C68.7987 206.829 69.1507 207.19 69.1362 207.63ZM71.8191 207.577C71.8334 207.156 72.1929 206.829 72.6139 206.829H73.1575C73.1585 206.829 73.1593 206.829 73.1593 206.83V208.376C73.1593 208.377 73.1585 208.378 73.1575 208.378H72.5935C72.1568 208.378 71.8042 208.017 71.8191 207.577Z" fill="#CC0000" />
		<path fill-rule="evenodd" clip-rule="evenodd" d="M68.2801 204.424L64.5717 200.189H59.0881L62.7965 204.424H68.2801Z" fill="#8FDEF6" />
		<path fill-rule="evenodd" clip-rule="evenodd" d="M56.2696 201.286C56.2696 200.68 55.7783 200.189 55.1722 200.189H53.3145V204.424H56.2696V201.286ZM59.0878 200.189H58.3954C57.7893 200.189 57.298 200.68 57.298 201.286V204.424H62.7963L59.0878 200.189ZM67.1303 206.829H67.6739C67.675 206.829 67.6757 206.829 67.6757 206.83V208.376C67.6757 208.377 67.675 208.378 67.6739 208.378H67.11C66.6732 208.378 66.3207 208.017 66.3356 207.577C66.3499 207.156 66.7093 206.829 67.1303 206.829Z" fill="white" />
		<path fill-rule="evenodd" clip-rule="evenodd" d="M45.8862 209.897C45.8862 211.057 46.8263 211.997 47.9863 211.997C49.1461 211.997 50.0862 211.057 50.0862 209.897C50.0862 208.737 49.1461 207.797 47.9863 207.797C46.8263 207.797 45.8862 208.737 45.8862 209.897ZM61.8862 209.897C61.8862 211.057 62.8263 211.997 63.9863 211.997C65.1461 211.997 66.0862 211.057 66.0862 209.897C66.0862 208.737 65.1461 207.797 63.9863 207.797C62.8263 207.797 61.8862 208.737 61.8862 209.897Z" fill="#333333" />
		<path fill-rule="evenodd" clip-rule="evenodd" d="M203.844 91.8439H211.603V93.7648H206.126V95.9873H211.151V97.7574H206.126V100.301H211.718V102.218H203.844V91.8439ZM255.185 91.8439H258.395L260.82 98.9797H260.848L263.146 91.8439H266.357V102.218H264.221V94.8681H264.19L261.65 102.218H259.892L257.348 94.9395H257.32V102.218H255.185V91.8439ZM271.278 94.5029C268.924 94.5029 267.4 96.0905 267.4 98.4717C267.4 100.853 268.972 102.441 271.278 102.441C273.584 102.441 275.171 100.853 275.171 98.4717C275.171 96.0905 273.631 94.5029 271.278 94.5029ZM271.266 96.0587C272.687 96.0587 273.112 97.2494 273.112 98.4717C273.112 99.9362 272.453 100.853 271.278 100.853C270.103 100.853 269.464 100.012 269.464 98.4717C269.464 96.9318 270.115 96.0587 271.266 96.0587ZM277.961 94.7093H276.001L275.985 102.23H278.049V98.8448C278.049 97.4637 278.585 96.4358 280.081 96.4358C280.33 96.4336 280.579 96.4576 280.823 96.5072V94.5903C280.677 94.5409 280.524 94.5154 280.37 94.5149C279.334 94.5304 278.402 95.1514 277.989 96.1024H277.961V94.7093ZM284.831 94.5029C282.585 94.5029 280.998 96.2056 280.998 98.4717H281.013C281.013 100.801 282.466 102.441 284.847 102.441C286.649 102.441 287.812 101.615 288.364 99.9124H286.55C286.387 100.436 285.701 100.889 284.907 100.889C283.732 100.889 283.133 100.278 283.077 98.9837H288.495V98.5868C288.495 96.3643 287.213 94.5029 284.831 94.5029ZM284.776 96.0905C285.736 96.0905 286.228 96.5429 286.431 97.678H283.077C283.076 97.237 283.258 96.8154 283.581 96.5143C283.903 96.2131 284.336 96.0596 284.776 96.0905ZM289.711 99.9915C289.32 100.227 289.092 100.659 289.118 101.115H289.134C289.147 101.795 289.704 102.338 290.384 102.333C291.035 102.295 291.551 101.767 291.574 101.115C291.6 100.659 291.372 100.227 290.981 99.9915C290.591 99.7559 290.102 99.7559 289.711 99.9915ZM296.833 91.8597H301.524C303.953 91.8597 305.096 93.3441 305.096 95.1896C305.096 97.035 303.905 98.5154 301.524 98.5154H299.099V102.234H296.817L296.833 91.8597ZM300.937 96.7255C302.246 96.7255 302.897 96.277 302.897 95.1737C302.897 94.0704 302.29 93.6179 300.953 93.6179H299.123V96.7255H300.937ZM305.358 100.17C305.324 99.5693 305.565 98.9853 306.013 98.5829C306.493 98.186 307.203 97.9598 308.442 97.8288C309.775 97.6819 310.359 97.5669 310.359 96.9001C310.359 96.0428 309.732 95.896 309.037 95.896C308.18 95.896 307.727 96.2452 307.656 97.0311H305.592C305.679 95.388 307.029 94.5149 309.136 94.5149C311.331 94.5149 312.418 95.257 312.418 96.6501V100.27C312.418 100.762 312.506 100.865 312.942 100.865H313.002V102.179C312.734 102.304 312.44 102.364 312.145 102.353C311.184 102.353 310.692 102.063 310.533 101.381C310.037 101.976 309.168 102.409 307.918 102.409C306.378 102.409 305.358 101.615 305.358 100.158V100.17ZM310.359 99.329V98.5352C310.168 98.7099 309.807 98.8131 309.108 98.9004C308.049 99.0313 307.422 99.2615 307.422 100.091C307.422 100.686 307.787 101.051 308.688 101.051C309.791 101.051 310.359 100.456 310.359 99.3488V99.329ZM313.613 104.79V103.091C313.974 103.138 314.337 103.162 314.701 103.163C314.953 103.176 315.199 103.08 315.375 102.899C315.551 102.718 315.641 102.47 315.621 102.218C315.621 102.059 315.591 101.902 315.534 101.754L312.887 94.7093H315.097L316.796 99.8688H316.812L318.451 94.7093H320.586L317.451 103.163C317.014 104.353 316.288 104.861 314.891 104.861C314.46 104.861 314.029 104.837 313.601 104.79H313.613ZM215.028 98.2654L212.56 94.7093H214.913L216.235 96.6699L217.544 94.7093H219.827L217.354 98.2217L220.128 102.218H217.775L216.207 99.8489L214.639 102.218H212.33L215.028 98.2654ZM327.254 91.8439H324.972V102.218H332.31V100.301H327.254V91.8439ZM332.786 98.4717C332.786 96.2056 334.374 94.5029 336.624 94.5029C339.005 94.5029 340.283 96.3643 340.283 98.5868V98.9837H334.85C334.91 100.278 335.505 100.889 336.68 100.889C337.473 100.889 338.164 100.436 338.323 99.9124H340.14C339.585 101.615 338.426 102.441 336.624 102.441C334.243 102.441 332.786 100.801 332.786 98.4717ZM338.208 97.678C338.001 96.5429 337.509 96.0905 336.549 96.0905C336.109 96.0596 335.676 96.2131 335.354 96.5143C335.031 96.8154 334.849 97.237 334.85 97.678H338.208ZM340.748 99.7973H340.752C340.82 101.561 342.238 102.425 344.284 102.425C346.042 102.425 347.713 101.742 347.713 99.8132C347.734 99.2969 347.519 98.7991 347.13 98.4598C346.693 98.0669 346.129 97.8486 344.601 97.543C343.439 97.3128 342.99 97.039 342.99 96.5866C342.99 96.1341 343.343 95.888 344.137 95.888C344.994 95.888 345.49 96.1778 345.546 96.9041H347.507C347.372 95.3681 346.229 94.5228 344.197 94.5228C342.089 94.5228 340.926 95.3483 340.926 96.9358C340.926 98.0114 341.637 98.5908 343.383 98.9559C345.01 99.2893 345.649 99.5513 345.649 100.103C345.649 100.758 344.994 101.063 344.296 101.063C343.435 101.063 342.708 100.643 342.708 99.7973H340.752L340.752 99.7814L340.748 99.7973ZM348.174 99.7973H348.165L348.173 99.7814L348.174 99.7973ZM348.174 99.7973H350.15C350.15 100.643 350.876 101.063 351.737 101.063C352.432 101.063 353.087 100.758 353.087 100.103C353.087 99.5513 352.448 99.2893 350.82 98.9559C349.078 98.5908 348.368 98.0114 348.368 96.9358C348.368 95.3483 349.527 94.5228 351.634 94.5228C353.67 94.5228 354.809 95.3681 354.948 96.9041H352.968C352.908 96.1778 352.412 95.888 351.559 95.888C350.705 95.888 350.408 96.1341 350.408 96.5866C350.408 97.039 350.86 97.3128 352.023 97.543C353.547 97.8486 354.115 98.0669 354.551 98.4598C354.938 98.8005 355.151 99.2978 355.131 99.8132C355.131 101.742 353.46 102.425 351.702 102.425C349.66 102.425 348.237 101.561 348.174 99.7973ZM355.754 101.115C355.728 100.659 355.956 100.227 356.347 99.9915C356.738 99.7559 357.227 99.7559 357.617 99.9915C358.008 100.227 358.236 100.659 358.21 101.115C358.187 101.767 357.671 102.295 357.02 102.333C356.34 102.338 355.783 101.795 355.77 101.115H355.754ZM222.728 94.7093H220.767V104.862H222.831V101.29H222.851C223.365 102.021 224.212 102.445 225.105 102.421C227.268 102.421 228.403 100.607 228.403 98.5432C228.403 96.3048 227.268 94.503 224.986 94.503C224.085 94.4554 223.229 94.9007 222.752 95.6658H222.728V94.7093ZM224.53 96.0587C225.911 96.0587 226.347 97.3367 226.347 98.4837C226.347 99.8172 225.804 100.865 224.557 100.865C223.311 100.865 222.759 99.837 222.759 98.4837C222.759 96.9596 223.398 96.0587 224.53 96.0587ZM229.102 98.4717C229.102 96.2056 230.669 94.5029 232.939 94.5029C235.321 94.5029 236.599 96.3643 236.599 98.5868V98.9837H231.169C231.229 100.278 231.824 100.889 232.999 100.889C233.793 100.889 234.483 100.436 234.642 99.9124H236.456C235.904 101.615 234.741 102.441 232.943 102.441C230.562 102.441 229.106 100.801 229.106 98.4717H229.102ZM234.527 97.678C234.321 96.5429 233.828 96.0905 232.868 96.0905C232.428 96.0596 231.995 96.2131 231.673 96.5143C231.351 96.8154 231.168 97.237 231.169 97.678H234.527ZM237.357 98.571C237.357 96.1897 238.809 94.5029 241.195 94.5029C243.111 94.5029 244.624 95.5507 244.723 97.3525H242.703C242.681 96.9755 242.506 96.6238 242.218 96.3793C241.93 96.1349 241.554 96.019 241.179 96.0587C239.928 96.0587 239.42 97.2771 239.42 98.4995C239.42 99.7219 239.928 100.881 241.135 100.881C242.052 100.881 242.631 100.357 242.778 99.3528H244.762C244.489 101.337 243.151 102.433 241.147 102.433C238.805 102.433 237.353 100.762 237.353 98.5829L237.357 98.571ZM246.366 96.0865V100.48C246.366 101.813 247.132 102.294 248.719 102.294C249.127 102.299 249.534 102.275 249.938 102.222V100.611C249.728 100.654 249.513 100.672 249.299 100.666C248.6 100.666 248.426 100.492 248.426 99.7973V96.0865H249.938V94.7093H248.426V92.4551H246.366V94.7093H245.116V96.0865H246.366Z" fill="#212121" />
		<path fill-rule="evenodd" clip-rule="evenodd" d="M281.03 25.0223C270.398 25.023 261.779 33.5948 261.779 44.1684C261.778 49.2473 263.806 54.1184 267.418 57.7093C271.03 61.3002 275.928 63.3166 281.035 63.3145C291.668 63.3124 300.285 54.7394 300.284 44.1658C300.282 33.5922 291.662 25.0216 281.03 25.0223ZM292.894 49.0547C290.906 53.8232 286.226 56.9315 281.035 56.9299C273.95 56.9277 268.207 51.2149 268.207 44.1684C268.207 39.0065 271.334 34.353 276.129 32.378C280.925 30.403 286.445 31.4955 290.114 35.1461C293.784 38.7967 294.881 44.2862 292.894 49.0547ZM287.451 44.1684C287.451 47.6924 284.579 50.5492 281.035 50.5492C277.492 50.5492 274.619 47.6924 274.619 44.1684C274.619 40.6444 277.492 37.7877 281.035 37.7877C284.574 37.7942 287.44 40.649 287.44 44.1684H287.451ZM265.099 65.7892V68.0403H266.618V69.4207H265.099V73.1386C265.099 73.8328 265.273 74.0092 265.975 74.0092C266.191 74.0139 266.406 73.9941 266.618 73.9504V75.5623C266.211 75.6182 265.801 75.6431 265.391 75.6368C263.814 75.6368 263.025 75.1544 263.025 73.821V69.4286H261.771V68.0481H263.025V65.7892H265.099ZM274.619 74.1896C274.181 74.1896 274.095 74.0877 274.095 73.5974H274.083V69.9776C274.083 68.5854 272.99 67.8442 270.782 67.8442C268.676 67.8442 267.32 68.7148 267.233 70.3581H269.303C269.378 69.5737 269.832 69.2247 270.691 69.2247C271.393 69.2247 272.02 69.3698 272.02 70.2286C272.02 70.8953 271.437 71.0091 270.092 71.1581C268.838 71.2875 268.136 71.5189 267.655 71.9111C267.199 72.3134 266.956 72.9026 266.996 73.5072C266.996 74.974 268.022 75.7583 269.567 75.7583C270.825 75.7583 271.701 75.323 272.198 74.7269C272.359 75.4132 272.852 75.7034 273.819 75.7034C274.115 75.7138 274.41 75.6533 274.678 75.527V74.1896H274.619ZM272.02 72.6797C272.02 73.7857 271.452 74.3818 270.34 74.3818C269.437 74.3818 269.071 74.0249 269.071 73.4327C269.071 72.6209 269.698 72.3856 270.766 72.2562C271.468 72.1699 271.831 72.0679 272.02 71.8954V72.6797ZM280.053 69.8325V67.9187C279.907 67.87 279.754 67.8448 279.6 67.8442C278.55 67.8574 277.607 68.4825 277.19 69.4404H277.163V68.0481H275.191V75.5583H277.265V72.1738C277.265 70.7934 277.806 69.7619 279.308 69.7619C279.558 69.7598 279.808 69.7835 280.053 69.8325ZM285.574 69.0521H285.547C285.09 68.2579 284.212 67.7991 283.295 67.8756C281.177 67.8756 280.053 69.6757 280.053 71.5934C280.053 73.8014 281.106 75.3701 283.283 75.3701C284.198 75.4205 285.066 74.969 285.547 74.1936H285.574V75.225C285.574 76.3701 284.975 77.0408 283.91 77.0408C283.106 77.0408 282.538 76.7349 282.364 76.0093H280.302C280.393 77.531 281.895 78.4173 283.646 78.4173C286.406 78.4173 287.546 77.0682 287.546 75.1073V68.0481H285.574V69.0521ZM285.563 71.6915C285.563 72.868 284.92 73.7857 283.796 73.7857C282.613 73.7857 282.116 72.7699 282.116 71.5346C282.116 70.2992 282.715 69.3972 283.78 69.3972C285.243 69.3972 285.563 70.6483 285.563 71.6915ZM295.65 71.9268V72.319H290.188C290.247 73.6131 290.847 74.221 292.03 74.221C292.819 74.221 293.521 73.77 293.682 73.2484H295.504C294.952 74.9465 293.781 75.774 291.955 75.774C289.561 75.774 288.102 74.1347 288.102 71.8248C288.102 69.5149 289.68 67.8599 291.955 67.8599C294.353 67.8442 295.65 69.711 295.65 71.9268ZM293.564 70.9973C293.359 69.8639 292.862 69.3972 291.9 69.3972C291.456 69.3702 291.02 69.5266 290.696 69.8296C290.372 70.1325 290.189 70.555 290.188 70.9973H293.564ZM298.781 65.7892V68.0403H300.304V69.4207H298.781V73.1386C298.781 73.8328 298.959 74.0092 299.661 74.0092C299.877 74.0136 300.092 73.9939 300.304 73.9504V75.5623C299.896 75.6182 299.485 75.6431 299.073 75.6368C297.496 75.6368 296.707 75.1544 296.707 73.821V69.4286H295.453V68.0481H296.707V65.7892H298.781Z" fill="#CC0000" />
	</g>
	<defs>
		<linearGradient id="paint0_linear" x1="0" y1="0" x2="0" y2="212" gradientUnits="userSpaceOnUse">
			<stop stop-color="#F7F7F7" />
			<stop offset="1" stop-color="#EEEEEE" />
		</linearGradient>
		<clipPath id="clip0">
			<rect width="562" height="212" fill="white" />
		</clipPath>
	</defs>
</svg>
